<?xml version="1.0" ?><!DOCTYPE svg  PUBLIC '-//W3C//DTD SVG 1.1//EN'  'http://www.w3.org/Graphics/SVG/1.1/DTD/svg11.dtd'><svg enable-background="new 0 0 128 128" height="128px" id="Layer_1" version="1.1" viewBox="0 0 128 128" width="128px" xml:space="preserve" xmlns="http://www.w3.org/2000/svg" xmlns:xlink="http://www.w3.org/1999/xlink"><path d="M109.207,102.516H18.82c-2.586,0-4.69-2.104-4.69-4.69V37.846c0-2.586,2.104-4.69,4.69-4.69h24.587  c0.9,0,2.364-0.665,2.956-1.341l2.736-3.126c1.353-1.544,3.918-2.708,5.968-2.708h17.64c2.051,0,4.616,1.164,5.969,2.708  l2.734,3.126c0.593,0.677,2.058,1.341,2.957,1.341h24.84c2.586,0,4.69,2.104,4.69,4.69v59.979  C113.897,100.412,111.793,102.516,109.207,102.516z M18.82,37.155c-0.374,0-0.69,0.316-0.69,0.69v59.979  c0,0.375,0.316,0.69,0.69,0.69h90.387c0.374,0,0.69-0.315,0.69-0.69V37.846c0-0.375-0.316-0.69-0.69-0.69h-24.84  c-2.051,0-4.615-1.163-5.967-2.707l-2.734-3.126c-0.594-0.676-2.06-1.342-2.959-1.342h-17.64c-0.899,0-2.364,0.666-2.958,1.343  l-2.735,3.125c-1.35,1.543-3.915,2.707-5.967,2.707H18.82z"/><path d="M64.013,91.914c-12.808,0-23.228-10.42-23.228-23.228c0-12.807,10.42-23.226,23.228-23.226  c12.809,0,23.229,10.419,23.229,23.226C87.242,81.494,76.821,91.914,64.013,91.914z M64.013,49.461  c-10.603,0-19.228,8.625-19.228,19.226c0,10.603,8.625,19.228,19.228,19.228c10.604,0,19.229-8.625,19.229-19.228  C83.242,58.085,74.616,49.461,64.013,49.461z"/><path d="M111.129,71.234h-13.33c-1.104,0-2-0.896-2-2c0-1.105,0.896-2,2-2h13.33c1.104,0,2,0.895,2,2  C113.129,70.338,112.233,71.234,111.129,71.234z"/><path d="M31.125,71.234H17.013c-1.104,0-2-0.896-2-2c0-1.105,0.896-2,2-2h14.112c1.104,0,2,0.895,2,2  C33.125,70.338,32.229,71.234,31.125,71.234z"/><path d="M64.015,81.187c-6.892,0-12.499-5.606-12.499-12.498S57.123,56.19,64.015,56.19c6.891,0,12.497,5.606,12.497,12.498  S70.905,81.187,64.015,81.187z M64.015,60.19c-4.687,0-8.499,3.812-8.499,8.498c0,4.687,3.813,8.498,8.499,8.498  c4.686,0,8.497-3.812,8.497-8.498C72.512,64.002,68.7,60.19,64.015,60.19z"/></svg>